<svg xmlns="http://www.w3.org/2000/svg" width="620" height="190" viewBox="0 0 620 190" fill="none">
  <defs>
    <linearGradient id="markGradient" x1="25" y1="151" x2="170" y2="35" gradientUnits="userSpaceOnUse">
      <stop offset="0" stop-color="#5B21B6"/>
      <stop offset="0.45" stop-color="#8B5CF6"/>
      <stop offset="1" stop-color="#22D3EE"/>
    </linearGradient>
    <linearGradient id="textGradient" x1="206" y1="72" x2="531" y2="72" gradientUnits="userSpaceOnUse">
      <stop offset="0" stop-color="#8B5CF6"/>
      <stop offset="0.58" stop-color="#22D3EE"/>
      <stop offset="1" stop-color="#06B6D4"/>
    </linearGradient>
    <filter id="glow" x="-50%" y="-50%" width="200%" height="200%">
      <feGaussianBlur stdDeviation="10" result="blur"/>
      <feColorMatrix in="blur" type="matrix" values="0 0 0 0 0.45 0 0 0 0 0.18 0 0 0 0 1 0 0 0 0.7 0"/>
      <feMerge>
        <feMergeNode/>
        <feMergeNode in="SourceGraphic"/>
      </feMerge>
    </filter>
  </defs>

  <g filter="url(#glow)">
    <path d="M96 18 36 52v69l60 35 60-35V52L96 18Z" fill="url(#markGradient)" opacity="0.96"/>
    <path d="M96 18v70l60-36L96 18Z" fill="#20D4EE" opacity="0.9"/>
    <path d="M36 52 96 88v68l-60-35V52Z" fill="#5B21B6" opacity="0.88"/>
    <path d="M96 88v68l60-35V52L96 88Z" fill="#0ECFF0" opacity="0.95"/>
    <path d="M56 103 83 86h25l29-19" stroke="#C4B5FD" stroke-width="7" stroke-linecap="round" stroke-linejoin="round"/>
    <circle cx="83" cy="86" r="10" fill="#94A3B8" stroke="#D8B4FE" stroke-width="5"/>
    <circle cx="108" cy="86" r="10" fill="#94A3B8" stroke="#C4B5FD" stroke-width="5"/>
    <circle cx="56" cy="103" r="8" fill="#94A3B8" stroke="#C4B5FD" stroke-width="5"/>
    <path d="M96 18 36 52v69l60 35 60-35V52L96 18Z" stroke="#1E1B4B" stroke-opacity="0.45" stroke-width="2"/>
  </g>

  <text x="205" y="92" fill="url(#textGradient)" font-family="Inter, Segoe UI, Arial, sans-serif" font-size="72" font-weight="900" letter-spacing="-2">
    CodeCraft
  </text>
  <text x="270" y="137" fill="#A7B0BA" fill-opacity="0.9" font-family="Inter, Segoe UI, Arial, sans-serif" font-size="32" font-weight="500" letter-spacing="13">
    SOLUTIONS
  </text>
</svg>
